# xmcd
#
# Track frame offsets:
#       182
#       17832
#       41255
#       59925
#       83445
#       106632
#       128197
#       150450
#       171932
#       192547
#       216370
#
# Disc length: 3215 seconds
#
# Revision: 0
# Processed by: cddbd v1.5.1PL2 Copyright (c) Steve Scherf et al.
# Submitted via: WhereIsIt 3.73
#
DISCID=900c8d0b
DTITLE=Enrico Ruggeri - Fango e stelle
DYEAR=1996
DGENRE=Rock Pop
TTITLE0=Fango e stelle
TTITLE1=L'amore è un attimo
TTITLE2=Il momento della verità
TTITLE3=L'altra madre
TTITLE4=Ombra e luce
TTITLE5=Napoli no
TTITLE6=Il mostro
TTITLE7=Ulisse
TTITLE8=Sole d'Europa
TTITLE9=Cercami cercami
TTITLE10=Verso le stelle
EXTD=
EXTT0=
EXTT1=
EXTT2=
EXTT3=
EXTT4=
EXTT5=
EXTT6=
EXTT7=
EXTT8=
EXTT9=
EXTT10=
PLAYORDER=
